
      <svg data-logo="logo" xmlns="http://www.w3.org/2000/svg" viewBox="0 0 198 43">
        <g id="logogram" transform="translate(0, 1) rotate(0) "><path d="M16.2956 37.5545C11.6968 42.1326 3.90817 42.1143 1.73302 36.0129C1.30716 34.8183 0.966664 33.59 0.716232 32.3367C-0.306275 27.2194 0.218513 21.9153 2.22424 17.0948C4.22996 12.2746 7.62652 8.15453 11.9844 5.25583C16.3424 2.35714 21.4659 0.809967 26.7071 0.809967C31.9483 0.809967 37.0718 2.35714 41.4296 5.25583C45.7876 8.15453 49.1841 12.2746 51.1899 17.095C53.1956 21.9153 53.7203 27.2194 52.6979 32.3367C52.4475 33.59 52.1069 34.8183 51.681 36.0129C49.5058 42.1143 41.7173 42.1326 37.1185 37.5545L30.0195 30.4877C29.3413 29.8126 29.4114 28.6991 29.5985 27.7627C29.7121 27.1935 29.6538 26.6034 29.4306 26.0671C29.2075 25.5308 28.8297 25.0725 28.3449 24.7501C27.8601 24.4276 27.2901 24.2555 26.7071 24.2555C26.124 24.2555 25.5541 24.4276 25.0693 24.7501C24.5843 25.0725 24.2065 25.5308 23.9834 26.0671C23.7602 26.6034 23.7019 27.1935 23.8157 27.7627C24.0028 28.6991 24.0727 29.8126 23.3945 30.4877L16.2956 37.5545Z" fill="url(#paint0_linear_5557_2015)"/></g>
        <g id="logotype" transform="translate(60, 1.5)"><path fill="#ffffff" d="M11.88 33L7.67 33L7.67 6.73L11.88 6.73L11.88 17.98L17.10 17.98L17.10 6.73L21.32 6.73L21.32 33L17.10 33L17.10 21.53L11.88 21.53L11.88 33ZM26.35 39.55L26.35 39.55Q25.76 39.55 25.18 39.48Q24.61 39.40 23.91 39.22L23.91 39.22L23.91 36.26Q25.50 36.44 26.39 36.18Q27.27 35.92 27.64 34.48L27.64 34.48L28.09 32.74L23.24 14.17L27.42 14.17L30.16 27.49L32.86 14.17L36.89 14.17L31.64 34.55Q30.94 37.37 29.64 38.46Q28.35 39.55 26.35 39.55ZM42.81 39.10L38.67 39.10L38.67 14.17L42.74 14.17L42.74 16.31Q43.89 13.72 46.48 13.72L46.48 13.72Q47.96 13.72 49.18 14.67Q50.40 15.61 51.14 17.77Q51.88 19.94 51.88 23.60L51.88 23.60Q51.88 27.23 51.14 29.39Q50.40 31.56 49.16 32.50Q47.92 33.44 46.40 33.44L46.40 33.44Q45.26 33.44 44.35 32.94Q43.44 32.45 42.81 31.37L42.81 31.37L42.81 39.10ZM42.81 20.72L42.81 26.23Q42.81 28.52 43.52 29.37Q44.22 30.23 45.26 30.23L45.26 30.23Q46.44 30.23 47.05 29.17Q47.66 28.12 47.66 25.75L47.66 25.75L47.66 21.42Q47.66 19.05 47.05 17.98Q46.44 16.91 45.26 16.91L45.26 16.91Q44.22 16.91 43.52 17.72Q42.81 18.53 42.81 20.72L42.81 20.72ZM60.46 33.44L60.46 33.44Q58.54 33.44 57.04 32.50Q55.54 31.56 54.71 29.39Q53.88 27.23 53.88 23.60L53.88 23.60Q53.88 19.98 54.73 17.81Q55.58 15.65 57.06 14.69Q58.54 13.72 60.46 13.72L60.46 13.72Q62.57 13.72 63.83 14.69Q65.09 15.65 65.70 17.22Q66.31 18.79 66.42 20.62Q66.53 22.45 66.38 24.19L66.38 24.19L58.02 24.19L58.02 25.53Q58.02 28.23 58.67 29.26Q59.32 30.30 60.54 30.30L60.54 30.30Q61.68 30.30 62.15 29.37Q62.61 28.45 62.83 26.27L62.83 26.27L66.50 26.56Q66.27 30.26 64.61 31.85Q62.94 33.44 60.46 33.44ZM58.02 21.46L58.02 21.46L58.02 21.57L62.80 21.57L62.80 21.34Q62.80 18.72 62.24 17.76Q61.68 16.79 60.54 16.79L60.54 16.79Q59.35 16.79 58.69 17.81Q58.02 18.83 58.02 21.46ZM73.16 33L69.01 33L69.01 14.17L73.12 14.17L73.12 16.68Q73.71 15.13 74.65 14.46Q75.60 13.80 76.63 13.80L76.63 13.80Q76.89 13.80 77.19 13.83Q77.48 13.87 77.82 13.98L77.82 13.98L77.82 17.68Q76.52 17.53 75.47 17.70Q74.41 17.87 73.78 18.63Q73.16 19.38 73.16 21.05L73.16 21.05L73.16 33ZM83.81 33L79.67 33L79.67 6.73L83.81 6.73L83.81 33ZM92.95 33.44L92.95 33.44Q90.99 33.44 89.47 32.50Q87.96 31.56 87.10 29.37Q86.25 27.19 86.25 23.57L86.25 23.57Q86.25 19.94 87.10 17.79Q87.96 15.65 89.47 14.69Q90.99 13.72 92.95 13.72L92.95 13.72Q94.95 13.72 96.45 14.69Q97.95 15.65 98.80 17.79Q99.65 19.94 99.65 23.57L99.65 23.57Q99.65 27.19 98.80 29.37Q97.95 31.56 96.45 32.50Q94.95 33.44 92.95 33.44ZM92.95 30.23L92.95 30.23Q94.13 30.23 94.78 29.19Q95.43 28.15 95.43 25.53L95.43 25.53L95.43 21.64Q95.43 19.01 94.78 17.98Q94.13 16.94 92.95 16.94L92.95 16.94Q91.77 16.94 91.12 17.98Q90.47 19.01 90.47 21.64L90.47 21.64L90.47 25.53Q90.47 28.15 91.12 29.19Q91.77 30.23 92.95 30.23ZM107.97 39.55L107.97 39.55Q104.38 39.55 102.72 38.27Q101.05 37.00 101.05 35.07L101.05 35.07Q101.05 33.78 101.90 32.65Q102.76 31.52 104.49 30.93L104.49 30.93Q103.61 30.45 103.18 29.69Q102.76 28.93 102.76 28.15L102.76 28.15Q102.76 27.34 103.13 26.62Q103.50 25.90 104.09 25.34L104.09 25.34Q101.46 23.71 101.46 20.05L101.46 20.05Q101.46 17.27 103.11 15.50Q104.75 13.72 107.90 13.72L107.90 13.72Q109.86 13.72 111.30 14.46L111.30 14.46Q111.89 13.24 112.73 12.65Q113.56 12.06 114.52 12.06L114.52 12.06Q114.97 12.06 115.41 12.17L115.41 12.17L115.41 15.50Q114.74 15.43 114.15 15.50Q113.56 15.57 113.08 15.91L113.08 15.91Q114.41 17.57 114.41 20.05L114.41 20.05Q114.41 22.86 112.73 24.60Q111.04 26.34 107.90 26.34L107.90 26.34Q106.97 26.34 106.20 26.19L106.20 26.19Q105.97 26.60 105.97 27.04L105.97 27.04Q105.97 28.08 107.64 28.41L107.64 28.41L111.12 29.08Q113.52 29.56 114.60 30.85Q115.67 32.15 115.67 33.89L115.67 33.89Q115.67 36.66 113.58 38.11Q111.49 39.55 107.97 39.55ZM107.90 23.71L107.90 23.71Q109.19 23.71 109.75 22.77Q110.30 21.83 110.30 20.01L110.30 20.01Q110.30 18.24 109.75 17.29Q109.19 16.35 107.90 16.35L107.90 16.35Q106.60 16.35 106.07 17.31Q105.53 18.27 105.53 20.01L105.53 20.01Q105.53 21.90 106.09 22.81Q106.64 23.71 107.90 23.71ZM104.57 34.44L104.57 34.44Q104.57 35.63 105.53 36.18Q106.49 36.74 108.23 36.74L108.23 36.74Q110.04 36.74 111.06 36.18Q112.08 35.63 112.08 34.59L112.08 34.59Q112.08 33.78 111.47 33.24Q110.86 32.70 109.49 32.45L109.49 32.45L106.60 32.00Q104.57 32.81 104.57 34.44ZM121.70 11.39L117.56 11.39L117.56 7.47L121.70 7.47L121.70 11.39ZM121.70 33L117.56 33L117.56 14.17L121.70 14.17L121.70 33ZM130.76 33.44L130.76 33.44Q128.84 33.44 127.36 32.48Q125.88 31.52 125.03 29.36Q124.18 27.19 124.18 23.60L124.18 23.60Q124.18 19.98 125.03 17.81Q125.88 15.65 127.36 14.69Q128.84 13.72 130.76 13.72L130.76 13.72Q132.43 13.72 133.74 14.43Q135.06 15.13 135.87 16.81Q136.68 18.50 136.76 21.42L136.76 21.42L133.13 21.64Q132.98 19.09 132.50 18.02Q132.02 16.94 130.84 16.94L130.84 16.94Q129.62 16.94 129.01 18.00Q128.40 19.05 128.40 21.68L128.40 21.68L128.40 25.49Q128.40 28.08 129.01 29.13Q129.62 30.19 130.84 30.19L130.84 30.19Q132.06 30.19 132.52 29.12Q132.98 28.04 133.13 25.49L133.13 25.49L136.80 25.71Q136.72 28.63 135.91 30.32Q135.09 32.00 133.76 32.72Q132.43 33.44 130.76 33.44Z"/></g>
        <defs xmlns="http://www.w3.org/2000/svg">
<linearGradient id="paint0_linear_5557_2015" x1="50.7948" y1="14.0001" x2="3.75737" y2="14.0001" gradientUnits="userSpaceOnUse">
<stop stop-color="#64C2DB"/>
<stop offset="0.510417" stop-color="#7476ED"/>
<stop offset="1" stop-color="#E56F8C"/>
</linearGradient>
</defs>
      </svg>
    