
      <svg data-logo="logo" xmlns="http://www.w3.org/2000/svg" viewBox="0 0 223 44">
        <g id="logogram" transform="translate(0, 1.5) rotate(0) "><path d="M20.1509 0.889954C31.1966 0.889954 40.1509 9.84426 40.1509 20.89V34.89C40.1509 38.2037 37.4646 40.89 34.1509 40.89H21.1509V32.1161C21.1509 30.114 21.2733 28.0404 22.3233 26.3357C23.8134 23.9168 26.3023 22.1871 29.2273 21.7093L29.6103 21.6467C29.9337 21.5358 30.1509 21.2318 30.1509 20.89C30.1509 20.5481 29.9337 20.2441 29.6103 20.1332L29.2273 20.0706C24.9869 19.378 21.6629 16.054 20.9702 11.8135L20.9076 11.4305C20.7968 11.1071 20.4927 10.89 20.1509 10.89C19.809 10.89 19.505 11.1071 19.3941 11.4305L19.3316 11.8135C18.8538 14.7385 17.124 17.2274 14.7051 18.7175C13.0005 19.7676 10.9268 19.89 8.9247 19.89H0.175446C0.696476 9.30884 9.44051 0.889954 20.1509 0.889954Z" fill="url(#paint0_radial_5557_2101)"/><path d="M20.1509 0.889954C31.1966 0.889954 40.1509 9.84426 40.1509 20.89V34.89C40.1509 38.2037 37.4646 40.89 34.1509 40.89H21.1509V32.1161C21.1509 30.114 21.2733 28.0404 22.3233 26.3357C23.8134 23.9168 26.3023 22.1871 29.2273 21.7093L29.6103 21.6467C29.9337 21.5358 30.1509 21.2318 30.1509 20.89C30.1509 20.5481 29.9337 20.2441 29.6103 20.1332L29.2273 20.0706C24.9869 19.378 21.6629 16.054 20.9702 11.8135L20.9076 11.4305C20.7968 11.1071 20.4927 10.89 20.1509 10.89C19.809 10.89 19.505 11.1071 19.3941 11.4305L19.3316 11.8135C18.8538 14.7385 17.124 17.2274 14.7051 18.7175C13.0005 19.7676 10.9268 19.89 8.9247 19.89H0.175446C0.696476 9.30884 9.44051 0.889954 20.1509 0.889954Z" fill="url(#paint1_radial_5557_2101)" style="mix-blend-mode:lighten"/><path d="M20.1509 0.889954C31.1966 0.889954 40.1509 9.84426 40.1509 20.89V34.89C40.1509 38.2037 37.4646 40.89 34.1509 40.89H21.1509V32.1161C21.1509 30.114 21.2733 28.0404 22.3233 26.3357C23.8134 23.9168 26.3023 22.1871 29.2273 21.7093L29.6103 21.6467C29.9337 21.5358 30.1509 21.2318 30.1509 20.89C30.1509 20.5481 29.9337 20.2441 29.6103 20.1332L29.2273 20.0706C24.9869 19.378 21.6629 16.054 20.9702 11.8135L20.9076 11.4305C20.7968 11.1071 20.4927 10.89 20.1509 10.89C19.809 10.89 19.505 11.1071 19.3941 11.4305L19.3316 11.8135C18.8538 14.7385 17.124 17.2274 14.7051 18.7175C13.0005 19.7676 10.9268 19.89 8.9247 19.89H0.175446C0.696476 9.30884 9.44051 0.889954 20.1509 0.889954Z" fill="url(#paint2_radial_5557_2101)" style="mix-blend-mode:lighten"/><path d="M0.150879 21.89H8.9247C10.9268 21.89 13.0004 22.0123 14.705 23.0624C16.0361 23.8823 17.1585 25.0047 17.9785 26.3358C19.0285 28.0405 19.1509 30.114 19.1509 32.1161V40.89H6.15088C2.83717 40.89 0.150879 38.2037 0.150879 34.89V21.89Z" fill="url(#paint3_radial_5557_2101)"/><path d="M0.150879 21.89H8.9247C10.9268 21.89 13.0004 22.0123 14.705 23.0624C16.0361 23.8823 17.1585 25.0047 17.9785 26.3358C19.0285 28.0405 19.1509 30.114 19.1509 32.1161V40.89H6.15088C2.83717 40.89 0.150879 38.2037 0.150879 34.89V21.89Z" fill="url(#paint4_radial_5557_2101)" style="mix-blend-mode:lighten"/><path d="M0.150879 21.89H8.9247C10.9268 21.89 13.0004 22.0123 14.705 23.0624C16.0361 23.8823 17.1585 25.0047 17.9785 26.3358C19.0285 28.0405 19.1509 30.114 19.1509 32.1161V40.89H6.15088C2.83717 40.89 0.150879 38.2037 0.150879 34.89V21.89Z" fill="url(#paint5_radial_5557_2101)" style="mix-blend-mode:lighten"/><path d="M40.1509 2.88995C40.1509 3.99452 39.2554 4.88995 38.1509 4.88995C37.0463 4.88995 36.1509 3.99452 36.1509 2.88995C36.1509 1.78538 37.0463 0.889954 38.1509 0.889954C39.2554 0.889954 40.1509 1.78538 40.1509 2.88995Z" fill="url(#paint6_radial_5557_2101)"/><path d="M40.1509 2.88995C40.1509 3.99452 39.2554 4.88995 38.1509 4.88995C37.0463 4.88995 36.1509 3.99452 36.1509 2.88995C36.1509 1.78538 37.0463 0.889954 38.1509 0.889954C39.2554 0.889954 40.1509 1.78538 40.1509 2.88995Z" fill="url(#paint7_radial_5557_2101)" style="mix-blend-mode:lighten"/><path d="M40.1509 2.88995C40.1509 3.99452 39.2554 4.88995 38.1509 4.88995C37.0463 4.88995 36.1509 3.99452 36.1509 2.88995C36.1509 1.78538 37.0463 0.889954 38.1509 0.889954C39.2554 0.889954 40.1509 1.78538 40.1509 2.88995Z" fill="url(#paint8_radial_5557_2101)" style="mix-blend-mode:lighten"/><path fill-rule="evenodd" clip-rule="evenodd" d="M29.8548 22.62L29.3885 22.6962C26.7564 23.1261 24.5163 24.6825 23.1748 26.8602C22.2873 28.3009 22.1509 30.1124 22.1509 32.1161V39.89H34.1509C36.9123 39.89 39.1509 37.6514 39.1509 34.89V20.89C39.1509 10.3965 30.6443 1.88995 20.1509 1.88995C10.333 1.88995 2.25387 9.33701 1.25483 18.89H8.9247C10.9284 18.89 12.7399 18.7536 14.1806 17.8661C16.3584 16.5246 17.9147 14.2844 18.3446 11.6523L18.4208 11.186L18.4482 11.1062C18.6976 10.3786 19.3818 9.88995 20.1509 9.88995C20.92 9.88995 21.6041 10.3786 21.8536 11.1062L21.881 11.186L21.9571 11.6523C22.5805 15.4687 25.5721 18.4603 29.3885 19.0837L29.8548 19.1599L29.9347 19.1873C30.6622 19.4367 31.1509 20.1208 31.1509 20.89C31.1509 21.6591 30.6622 22.3432 29.9347 22.5927L29.8548 22.62ZM0.175446 19.89C0.19197 19.5544 0.216765 19.221 0.249631 18.89C1.25308 8.78331 9.78018 0.889954 20.1509 0.889954C31.1966 0.889954 40.1509 9.84426 40.1509 20.89V34.89C40.1509 38.2037 37.4646 40.89 34.1509 40.89H21.1509V32.1161C21.1509 30.114 21.2733 28.0404 22.3233 26.3357C23.8134 23.9168 26.3023 22.1871 29.2273 21.7093L29.6103 21.6467C29.9337 21.5358 30.1509 21.2318 30.1509 20.89C30.1509 20.5481 29.9337 20.2441 29.6103 20.1332L29.2273 20.0706C24.9869 19.378 21.6629 16.054 20.9702 11.8135L20.9076 11.4305C20.7968 11.1071 20.4927 10.89 20.1509 10.89C19.809 10.89 19.505 11.1071 19.3941 11.4305L19.3316 11.8135C18.8538 14.7385 17.124 17.2274 14.7051 18.7175C13.0005 19.7676 10.9268 19.89 8.9247 19.89H0.175446ZM8.9247 22.89H1.15088V34.89C1.15088 37.6514 3.38945 39.89 6.15088 39.89H18.1509V32.1161C18.1509 30.1124 18.0145 28.301 17.127 26.8603C16.389 25.6622 15.3786 24.6518 14.1805 23.9138C12.7398 23.0263 10.9284 22.89 8.9247 22.89ZM8.9247 21.89C10.9268 21.89 13.0004 22.0123 14.705 23.0624C16.0361 23.8823 17.1585 25.0047 17.9785 26.3358C19.0285 28.0405 19.1509 30.114 19.1509 32.1161V40.89H6.15088C2.83717 40.89 0.150879 38.2037 0.150879 34.89V21.89H8.9247Z" fill="white"/><path fill-rule="evenodd" clip-rule="evenodd" d="M29.8548 22.62L29.3885 22.6962C26.7564 23.1261 24.5163 24.6825 23.1748 26.8602C22.2873 28.3009 22.1509 30.1124 22.1509 32.1161V39.89H34.1509C36.9123 39.89 39.1509 37.6514 39.1509 34.89V20.89C39.1509 10.3965 30.6443 1.88995 20.1509 1.88995C10.333 1.88995 2.25387 9.33701 1.25483 18.89H8.9247C10.9284 18.89 12.7399 18.7536 14.1806 17.8661C16.3584 16.5246 17.9147 14.2844 18.3446 11.6523L18.4208 11.186L18.4482 11.1062C18.6976 10.3786 19.3818 9.88995 20.1509 9.88995C20.92 9.88995 21.6041 10.3786 21.8536 11.1062L21.881 11.186L21.9571 11.6523C22.5805 15.4687 25.5721 18.4603 29.3885 19.0837L29.8548 19.1599L29.9347 19.1873C30.6622 19.4367 31.1509 20.1208 31.1509 20.89C31.1509 21.6591 30.6622 22.3432 29.9347 22.5927L29.8548 22.62ZM0.175446 19.89C0.19197 19.5544 0.216765 19.221 0.249631 18.89C1.25308 8.78331 9.78018 0.889954 20.1509 0.889954C31.1966 0.889954 40.1509 9.84426 40.1509 20.89V34.89C40.1509 38.2037 37.4646 40.89 34.1509 40.89H21.1509V32.1161C21.1509 30.114 21.2733 28.0404 22.3233 26.3357C23.8134 23.9168 26.3023 22.1871 29.2273 21.7093L29.6103 21.6467C29.9337 21.5358 30.1509 21.2318 30.1509 20.89C30.1509 20.5481 29.9337 20.2441 29.6103 20.1332L29.2273 20.0706C24.9869 19.378 21.6629 16.054 20.9702 11.8135L20.9076 11.4305C20.7968 11.1071 20.4927 10.89 20.1509 10.89C19.809 10.89 19.505 11.1071 19.3941 11.4305L19.3316 11.8135C18.8538 14.7385 17.124 17.2274 14.7051 18.7175C13.0005 19.7676 10.9268 19.89 8.9247 19.89H0.175446ZM8.9247 22.89H1.15088V34.89C1.15088 37.6514 3.38945 39.89 6.15088 39.89H18.1509V32.1161C18.1509 30.1124 18.0145 28.301 17.127 26.8603C16.389 25.6622 15.3786 24.6518 14.1805 23.9138C12.7398 23.0263 10.9284 22.89 8.9247 22.89ZM8.9247 21.89C10.9268 21.89 13.0004 22.0123 14.705 23.0624C16.0361 23.8823 17.1585 25.0047 17.9785 26.3358C19.0285 28.0405 19.1509 30.114 19.1509 32.1161V40.89H6.15088C2.83717 40.89 0.150879 38.2037 0.150879 34.89V21.89H8.9247Z" fill="url(#paint9_linear_5557_2101)" style="mix-blend-mode:exclusion"/><path fill-rule="evenodd" clip-rule="evenodd" d="M29.8548 22.62L29.3885 22.6962C26.7564 23.1261 24.5163 24.6825 23.1748 26.8602C22.2873 28.3009 22.1509 30.1124 22.1509 32.1161V39.89H34.1509C36.9123 39.89 39.1509 37.6514 39.1509 34.89V20.89C39.1509 10.3965 30.6443 1.88995 20.1509 1.88995C10.333 1.88995 2.25387 9.33701 1.25483 18.89H8.9247C10.9284 18.89 12.7399 18.7536 14.1806 17.8661C16.3584 16.5246 17.9147 14.2844 18.3446 11.6523L18.4208 11.186L18.4482 11.1062C18.6976 10.3786 19.3818 9.88995 20.1509 9.88995C20.92 9.88995 21.6041 10.3786 21.8536 11.1062L21.881 11.186L21.9571 11.6523C22.5805 15.4687 25.5721 18.4603 29.3885 19.0837L29.8548 19.1599L29.9347 19.1873C30.6622 19.4367 31.1509 20.1208 31.1509 20.89C31.1509 21.6591 30.6622 22.3432 29.9347 22.5927L29.8548 22.62ZM0.175446 19.89C0.19197 19.5544 0.216765 19.221 0.249631 18.89C1.25308 8.78331 9.78018 0.889954 20.1509 0.889954C31.1966 0.889954 40.1509 9.84426 40.1509 20.89V34.89C40.1509 38.2037 37.4646 40.89 34.1509 40.89H21.1509V32.1161C21.1509 30.114 21.2733 28.0404 22.3233 26.3357C23.8134 23.9168 26.3023 22.1871 29.2273 21.7093L29.6103 21.6467C29.9337 21.5358 30.1509 21.2318 30.1509 20.89C30.1509 20.5481 29.9337 20.2441 29.6103 20.1332L29.2273 20.0706C24.9869 19.378 21.6629 16.054 20.9702 11.8135L20.9076 11.4305C20.7968 11.1071 20.4927 10.89 20.1509 10.89C19.809 10.89 19.505 11.1071 19.3941 11.4305L19.3316 11.8135C18.8538 14.7385 17.124 17.2274 14.7051 18.7175C13.0005 19.7676 10.9268 19.89 8.9247 19.89H0.175446ZM8.9247 22.89H1.15088V34.89C1.15088 37.6514 3.38945 39.89 6.15088 39.89H18.1509V32.1161C18.1509 30.1124 18.0145 28.301 17.127 26.8603C16.389 25.6622 15.3786 24.6518 14.1805 23.9138C12.7398 23.0263 10.9284 22.89 8.9247 22.89ZM8.9247 21.89C10.9268 21.89 13.0004 22.0123 14.705 23.0624C16.0361 23.8823 17.1585 25.0047 17.9785 26.3358C19.0285 28.0405 19.1509 30.114 19.1509 32.1161V40.89H6.15088C2.83717 40.89 0.150879 38.2037 0.150879 34.89V21.89H8.9247Z" fill="url(#paint10_linear_5557_2101)"/></g>
        <g id="logotype" transform="translate(47, 1)"><path fill="#ffffff" d="M24.51 34L8.31 34L8.31 8.54L13.52 8.54L13.52 29.68L24.51 29.68L24.51 34ZM34.25 34.38L34.25 34.38Q31.38 34.38 29.27 33.14Q27.17 31.90 26.04 29.68Q24.90 27.47 24.90 24.53L24.90 24.53Q24.90 21.56 26.04 19.35Q27.17 17.13 29.27 15.89Q31.38 14.65 34.25 14.65L34.25 14.65Q37.14 14.65 39.23 15.89Q41.32 17.13 42.46 19.35Q43.60 21.56 43.60 24.53L43.60 24.53Q43.60 27.47 42.46 29.68Q41.32 31.90 39.23 33.14Q37.14 34.38 34.25 34.38ZM34.25 30.34L34.25 30.34Q35.61 30.34 36.54 29.58Q37.46 28.82 37.92 27.50Q38.38 26.17 38.38 24.52L38.38 24.52Q38.38 22.82 37.92 21.51Q37.46 20.19 36.54 19.44Q35.61 18.69 34.25 18.69L34.25 18.69Q32.88 18.69 31.97 19.44Q31.05 20.19 30.59 21.51Q30.13 22.82 30.13 24.52L30.13 24.52Q30.13 26.17 30.59 27.50Q31.05 28.82 31.97 29.58Q32.88 30.34 34.25 30.34ZM53.37 41.55L53.37 41.55Q50.99 41.55 49.22 40.95Q47.44 40.34 46.33 39.28Q45.22 38.22 44.79 36.87L44.79 36.87L49.20 35.64Q49.44 36.17 49.94 36.67Q50.45 37.18 51.28 37.50Q52.12 37.83 53.35 37.83L53.35 37.83Q55.32 37.83 56.44 36.93Q57.56 36.03 57.56 34.14L57.56 34.14L57.56 30.62L57.16 30.62Q56.82 31.39 56.17 32.10Q55.52 32.82 54.47 33.27Q53.42 33.73 51.87 33.73L51.87 33.73Q49.71 33.73 47.95 32.72Q46.19 31.71 45.14 29.64Q44.09 27.57 44.09 24.41L44.09 24.41Q44.09 21.18 45.16 19.01Q46.23 16.84 47.99 15.75Q49.76 14.65 51.88 14.65L51.88 14.65Q53.49 14.65 54.58 15.19Q55.68 15.73 56.35 16.54Q57.03 17.35 57.37 18.11L57.37 18.11L57.59 18.11L57.59 14.89L62.63 14.89L62.63 33.85Q62.63 36.43 61.44 38.14Q60.26 39.86 58.17 40.71Q56.09 41.55 53.37 41.55ZM53.47 29.83L53.47 29.83Q54.79 29.83 55.70 29.18Q56.62 28.53 57.09 27.31Q57.57 26.09 57.57 24.38L57.57 24.38Q57.57 22.69 57.09 21.42Q56.62 20.16 55.70 19.46Q54.79 18.76 53.47 18.76L53.47 18.76Q52.12 18.76 51.21 19.48Q50.29 20.21 49.82 21.47Q49.35 22.74 49.35 24.38L49.35 24.38Q49.35 26.05 49.82 27.28Q50.29 28.50 51.22 29.16Q52.14 29.83 53.47 29.83ZM73.28 34.38L73.28 34.38Q70.41 34.38 68.30 33.14Q66.20 31.90 65.06 29.68Q63.93 27.47 63.93 24.53L63.93 24.53Q63.93 21.56 65.06 19.35Q66.20 17.13 68.30 15.89Q70.41 14.65 73.28 14.65L73.28 14.65Q76.16 14.65 78.26 15.89Q80.35 17.13 81.49 19.35Q82.62 21.56 82.62 24.53L82.62 24.53Q82.62 27.47 81.49 29.68Q80.35 31.90 78.26 33.14Q76.16 34.38 73.28 34.38ZM73.28 30.34L73.28 30.34Q74.64 30.34 75.57 29.58Q76.49 28.82 76.95 27.50Q77.41 26.17 77.41 24.52L77.41 24.52Q77.41 22.82 76.95 21.51Q76.49 20.19 75.57 19.44Q74.64 18.69 73.28 18.69L73.28 18.69Q71.91 18.69 71.00 19.44Q70.08 20.19 69.62 21.51Q69.16 22.82 69.16 24.52L69.16 24.52Q69.16 26.17 69.62 27.50Q70.08 28.82 71.00 29.58Q71.91 30.34 73.28 30.34ZM89.05 34L83.92 34L83.92 14.89L89.05 14.89L89.05 34ZM86.48 12.40L86.48 12.40Q85.32 12.40 84.50 11.63Q83.68 10.86 83.68 9.77L83.68 9.77Q83.68 8.67 84.50 7.90Q85.32 7.13 86.48 7.13L86.48 7.13Q87.65 7.13 88.48 7.90Q89.30 8.66 89.30 9.77L89.30 9.77Q89.30 10.86 88.48 11.63Q87.65 12.40 86.48 12.40ZM96.26 41.14L91.13 41.14L91.13 14.89L96.17 14.89L96.17 18.11L96.41 18.11Q96.77 17.35 97.43 16.55Q98.09 15.75 99.16 15.20Q100.24 14.65 101.86 14.65L101.86 14.65Q103.98 14.65 105.74 15.75Q107.50 16.84 108.55 19.03Q109.61 21.22 109.61 24.48L109.61 24.48Q109.61 27.66 108.58 29.86Q107.55 32.05 105.79 33.19Q104.03 34.32 101.83 34.32L101.83 34.32Q100.27 34.32 99.20 33.79Q98.12 33.27 97.45 32.49Q96.77 31.71 96.41 30.94L96.41 30.94L96.26 30.94L96.26 41.14ZM100.26 30.21L100.26 30.21Q101.59 30.21 102.50 29.47Q103.42 28.74 103.89 27.44Q104.36 26.14 104.36 24.46L104.36 24.46Q104.36 22.79 103.89 21.51Q103.42 20.23 102.51 19.49Q101.61 18.76 100.26 18.76L100.26 18.76Q98.94 18.76 98.02 19.47Q97.10 20.17 96.62 21.45Q96.14 22.72 96.14 24.46L96.14 24.46Q96.14 26.19 96.63 27.48Q97.11 28.77 98.04 29.49Q98.96 30.21 100.26 30.21ZM118.51 34.38L118.51 34.38Q116.20 34.38 114.42 33.72Q112.65 33.06 111.52 31.80Q110.39 30.55 110.06 28.77L110.06 28.77L114.83 27.95Q115.21 29.28 116.15 29.95Q117.09 30.62 118.66 30.62L118.66 30.62Q120.11 30.62 120.97 30.06Q121.82 29.51 121.82 28.65L121.82 28.65Q121.82 27.90 121.22 27.42Q120.61 26.94 119.36 26.69L119.36 26.69L116.06 26.00Q113.29 25.44 111.93 24.08Q110.56 22.72 110.56 20.58L110.56 20.58Q110.56 18.74 111.57 17.41Q112.58 16.09 114.37 15.37Q116.17 14.65 118.59 14.65L118.59 14.65Q120.85 14.65 122.51 15.28Q124.16 15.90 125.19 17.05Q126.21 18.19 126.56 19.75L126.56 19.75L122.01 20.55Q121.72 19.58 120.89 18.95Q120.06 18.33 118.66 18.33L118.66 18.33Q117.40 18.33 116.54 18.86Q115.69 19.39 115.69 20.26L115.69 20.26Q115.69 20.99 116.24 21.49Q116.80 21.99 118.15 22.26L118.15 22.26L121.58 22.94Q124.35 23.51 125.70 24.78Q127.05 26.05 127.05 28.10L127.05 28.10Q127.05 29.98 125.96 31.39Q124.86 32.80 122.94 33.59Q121.02 34.38 118.51 34.38ZM134.83 34.24L134.83 34.24Q132.84 34.24 131.36 33.38Q129.87 32.51 129.06 30.90Q128.25 29.28 128.25 27.04L128.25 27.04L128.25 14.89L133.37 14.89L133.37 26.16Q133.37 27.93 134.30 28.94Q135.22 29.95 136.83 29.95L136.83 29.95Q137.92 29.95 138.76 29.48Q139.59 29.01 140.06 28.11Q140.53 27.22 140.53 25.95L140.53 25.95L140.53 14.89L145.66 14.89L145.66 34L140.82 34L140.76 29.23L141.05 29.23Q140.29 31.64 138.75 32.94Q137.20 34.24 134.83 34.24ZM152.89 34L147.76 34L147.76 14.89L152.51 14.89L152.77 19.64L152.39 19.64Q152.84 17.88 153.70 16.77Q154.56 15.66 155.72 15.13Q156.89 14.60 158.17 14.60L158.17 14.60Q160.24 14.60 161.50 15.91Q162.77 17.22 163.36 19.95L163.36 19.95L162.77 19.95Q163.19 18.12 164.16 16.94Q165.12 15.75 166.45 15.18Q167.77 14.60 169.23 14.60L169.23 14.60Q170.99 14.60 172.36 15.37Q173.74 16.14 174.53 17.59Q175.33 19.03 175.33 21.11L175.33 21.11L175.33 34L170.20 34L170.20 22.09Q170.20 20.46 169.32 19.68Q168.44 18.89 167.16 18.89L167.16 18.89Q166.20 18.89 165.49 19.31Q164.78 19.73 164.40 20.48Q164.01 21.23 164.01 22.24L164.01 22.24L164.01 34L159.06 34L159.06 21.95Q159.06 20.55 158.23 19.72Q157.40 18.89 156.08 18.89L156.08 18.89Q155.18 18.89 154.45 19.30Q153.73 19.71 153.31 20.51Q152.89 21.30 152.89 22.45L152.89 22.45L152.89 34Z"/></g>
        <defs xmlns="http://www.w3.org/2000/svg">
<radialGradient id="paint0_radial_5557_2101" cx="0" cy="0" r="1" gradientUnits="userSpaceOnUse" gradientTransform="translate(9.65089 2.88995) rotate(52.5074) scale(46.0027 196.428)">
<stop stop-color="#4CE0F0"/>
<stop offset="0.192708" stop-color="#4C70F0"/>
<stop offset="1" stop-opacity="0"/>
</radialGradient>
<radialGradient id="paint1_radial_5557_2101" cx="0" cy="0" r="1" gradientUnits="userSpaceOnUse" gradientTransform="translate(1.65088 39.39) rotate(-38.5584) scale(44.1192 188.385)">
<stop stop-color="#E6D58C"/>
<stop offset="0.192708" stop-color="#D5723B"/>
<stop offset="1" stop-color="#312935"/>
</radialGradient>
<radialGradient id="paint2_radial_5557_2101" cx="0" cy="0" r="1" gradientUnits="userSpaceOnUse" gradientTransform="translate(37.1509 9.88995) rotate(146.31) scale(28.8444 39.4368)">
<stop stop-color="#EBF5EE"/>
<stop offset="0.244549" stop-color="#4CC9BB"/>
<stop offset="1" stop-color="#4F5EAF"/>
</radialGradient>
<radialGradient id="paint3_radial_5557_2101" cx="0" cy="0" r="1" gradientUnits="userSpaceOnUse" gradientTransform="translate(9.65089 2.88995) rotate(52.5074) scale(46.0027 196.428)">
<stop stop-color="#4CE0F0"/>
<stop offset="0.192708" stop-color="#4C70F0"/>
<stop offset="1" stop-opacity="0"/>
</radialGradient>
<radialGradient id="paint4_radial_5557_2101" cx="0" cy="0" r="1" gradientUnits="userSpaceOnUse" gradientTransform="translate(1.65088 39.39) rotate(-38.5584) scale(44.1192 188.385)">
<stop stop-color="#E6D58C"/>
<stop offset="0.192708" stop-color="#D5723B"/>
<stop offset="1" stop-color="#312935"/>
</radialGradient>
<radialGradient id="paint5_radial_5557_2101" cx="0" cy="0" r="1" gradientUnits="userSpaceOnUse" gradientTransform="translate(37.1509 9.88995) rotate(146.31) scale(28.8444 39.4368)">
<stop stop-color="#EBF5EE"/>
<stop offset="0.244549" stop-color="#4CC9BB"/>
<stop offset="1" stop-color="#4F5EAF"/>
</radialGradient>
<radialGradient id="paint6_radial_5557_2101" cx="0" cy="0" r="1" gradientUnits="userSpaceOnUse" gradientTransform="translate(9.65089 2.88995) rotate(52.5074) scale(46.0027 196.428)">
<stop stop-color="#4CE0F0"/>
<stop offset="0.192708" stop-color="#4C70F0"/>
<stop offset="1" stop-opacity="0"/>
</radialGradient>
<radialGradient id="paint7_radial_5557_2101" cx="0" cy="0" r="1" gradientUnits="userSpaceOnUse" gradientTransform="translate(1.65088 39.39) rotate(-38.5584) scale(44.1192 188.385)">
<stop stop-color="#E6D58C"/>
<stop offset="0.192708" stop-color="#D5723B"/>
<stop offset="1" stop-color="#312935"/>
</radialGradient>
<radialGradient id="paint8_radial_5557_2101" cx="0" cy="0" r="1" gradientUnits="userSpaceOnUse" gradientTransform="translate(37.1509 9.88995) rotate(146.31) scale(28.8444 39.4368)">
<stop stop-color="#EBF5EE"/>
<stop offset="0.244549" stop-color="#4CC9BB"/>
<stop offset="1" stop-color="#4F5EAF"/>
</radialGradient>
<linearGradient id="paint9_linear_5557_2101" x1="-0.349121" y1="17.39" x2="16.6509" y2="23.39" gradientUnits="userSpaceOnUse">
<stop stop-color="#0046F9"/>
<stop offset="0.166667" stop-color="#16DBF6"/>
<stop offset="0.278269" stop-color="white"/>
<stop offset="0.416267" stop-color="#FFE713"/>
<stop offset="0.55171" stop-color="#FF7917"/>
<stop offset="0.692008" stop-color="#FB0000"/>
<stop offset="0.827962" stop-color="#B30000"/>
<stop offset="1" stop-color="#DCCDC4"/>
</linearGradient>
<linearGradient id="paint10_linear_5557_2101" x1="36.6509" y1="30.89" x2="21.6509" y2="23.39" gradientUnits="userSpaceOnUse">
<stop stop-color="#5CE0F2"/>
<stop offset="1" stop-opacity="0"/>
</linearGradient>
</defs>
      </svg>
    